<svg version="1.1" id="logo" xmlns="http://www.w3.org/2000/svg" xmlns:xlink="http://www.w3.org/1999/xlink" x="0px" y="0px" viewBox="0 0 181 100" xml:space="preserve">
                	<path fill="#FFFFFF" d="M172.1,61.1l3.9,2.6c0.2,0.5,0.2,1.1-0.2,1.5c-0.5,0.8-1.1,0.8-1.9,0.2l-3.3-2.2l-1.3,2 l3.6,2.4c1.6,1.1,3.2,1.2,4.3-0.4c0.6-0.7,0.8-1.7,0.6-2.6c0.7,0.1,1.4-0.2,1.7-0.8c0.3-0.5,0.6-1.1,0.7-1.7l-1.6-1 c0,0.3-0.1,0.5-0.2,0.7c-0.2,0.3-0.5,0.2-0.8,0l-4.1-2.7L172.1,61.1z M165,66.6c0.6,0.5,1.2,0.3,1.7-0.2c0.5-0.6,0.7-1.1,0.1-1.7 c-0.6-0.5-1.1-0.4-1.7,0.2S164.5,66,165,66.6 M168.3,66.2l-1.6,1.8l4,3.7c1.1,1,2,0.9,2.8,0.1c0.4-0.4,0.7-1,1-1.5L173,69 c-0.1,0.2-0.2,0.5-0.3,0.6c-0.3,0.3-0.5,0.1-0.8-0.1L168.3,66.2z M167,77.6l1.8-1.6l-2.5-3c-0.4-0.6-0.7-1.4,0-1.9 c0.4-0.3,0.8-0.6,1.3-0.7l-1.2-1.8c-0.5,0.1-0.9,0.3-1.2,0.6c-0.6,0.5-0.9,1.3-0.7,2c-0.7-0.4-1.5-0.3-2,0.3 c-0.5,0.4-0.9,0.9-1.1,1.4l1.3,1.4c0.1-0.2,0.2-0.4,0.4-0.6c0.3-0.2,0.5-0.1,0.8,0.2L167,77.6z M160.7,82.2l2-1.3l-2.2-3.2 c-0.4-0.7-0.5-1.4,0.2-1.9c0.4-0.3,0.9-0.5,1.4-0.5l-1-2c-0.5,0-0.9,0.2-1.3,0.5c-0.7,0.4-1,1.2-0.9,1.9c-0.6-0.5-1.5-0.4-2.1,0.1 c-0.5,0.3-0.9,0.8-1.3,1.3l1.1,1.5c0.1-0.2,0.3-0.4,0.5-0.6c0.3-0.2,0.5,0,0.8,0.3L160.7,82.2z M151.8,83c-0.4-0.8-0.1-1.9,0.7-2.3 c0.8-0.4,1.9-0.1,2.3,0.7c0.4,0.8,0.1,1.9-0.7,2.3C153.4,84.2,152.3,83.9,151.8,83C151.9,83.1,151.9,83,151.8,83 M149.8,84.1 c1,2,3.5,2.7,5.4,1.7c2-1,2.7-3.5,1.7-5.4c-1-2-3.5-2.7-5.4-1.7c0,0-0.1,0-0.1,0c-1.9,0.9-2.7,3.3-1.7,5.2 C149.7,84,149.8,84.1,149.8,84.1 M147.4,81.5c-0.9,0-1.9,0.3-2.8,0.6c-1.9,0.8-2.7,2.3-2.1,3.6c0.4,1,1.5,1.5,2.5,1.2l1.2-0.2 c0.5-0.1,0.8-0.1,0.9,0.1c0.1,0.3-0.1,0.5-0.6,0.8c-0.8,0.3-1.6,0.4-2.4,0.3l0.4,1.9c1,0,2-0.2,2.9-0.6c1.8-0.8,2.4-2.1,1.9-3.5 c-0.4-1-1.5-1.5-2.5-1.2l-1.4,0.2c-0.4,0.1-0.6,0.1-0.8-0.2c-0.1-0.3,0.2-0.6,0.6-0.8c0.7-0.3,1.5-0.4,2.3-0.4L147.4,81.5z M138.1,94.8l1.4,0.1c0.3-1.2,0.3-2.5,0-3.8c-0.2-0.7-0.9-1.1-1.6-0.9c-0.1,0-0.1,0-0.2,0.1c-0.7,0.2-1.1,0.9-0.9,1.5 c0,0.1,0,0.2,0.1,0.2c0.1,0.6,0.6,0.9,1.2,0.9L138.1,94.8z M130,87.4l1.2,4.5c-0.2,0.5-0.6,0.9-1.1,1.1c-0.9,0.3-1.3-0.1-1.6-1.1 l-1.1-3.8l-2.3,0.6l1.1,4.1c0.5,1.8,1.7,3,3.5,2.4c0.9-0.2,1.7-0.8,2.1-1.6c0.4,0.6,1.2,0.8,1.9,0.5c0.6-0.2,1.1-0.4,1.6-0.8 l-0.6-1.8c-0.2,0.2-0.4,0.3-0.6,0.4c-0.3,0.1-0.5-0.2-0.6-0.5l-1.3-4.7L130,87.4z M120,87.7c0.2,0.8,0.7,0.9,1.5,0.8s1.2-0.5,1-1.3 c-0.2-0.8-0.7-1-1.5-0.8S119.8,86.9,120,87.7 M122.8,89.2l-2.3,0.5l1.1,5.4c0.3,1.5,1.1,1.9,2.3,1.7c0.6-0.1,1.2-0.3,1.7-0.7 l-0.5-1.8c-0.2,0.2-0.4,0.3-0.6,0.3c-0.4,0.1-0.5-0.2-0.6-0.6L122.8,89.2z M115.3,98.2l2.4-0.4l-0.6-3.8c-0.1-0.8,0.1-1.5,1-1.7 c0.5-0.1,1-0.1,1.5,0.1l-0.1-2.2c-0.4-0.2-0.9-0.2-1.4-0.1c-0.8,0.1-1.4,0.6-1.6,1.4c-0.4-0.7-1.2-1-1.9-0.8 c-0.6,0.1-1.2,0.3-1.7,0.6l0.4,1.8c0.2-0.1,0.4-0.3,0.7-0.3c0.4-0.1,0.5,0.2,0.6,0.6L115.3,98.2z M110.2,95.1 c0.2,0.9-0.4,1.8-1.3,1.9c-0.1,0-0.1,0-0.2,0c-0.5,0.1-1.1-0.1-1.5-0.4l-0.3-2.4c0.4-0.4,0.8-0.6,1.4-0.7c0.9-0.1,1.7,0.5,1.9,1.3 C110.2,94.9,110.2,95,110.2,95.1 M112.7,94.8c-0.3-2.2-1.8-3.7-3.9-3.4c-0.8,0.1-1.5,0.4-2,1l-0.4-3.3l-2.4,0.3l1.1,10l2.4-0.3 l-0.1-0.7c0.6,0.5,1.4,0.7,2.2,0.6C111.7,98.8,112.9,97,112.7,94.8 M98.5,92.5l1.6,3.7l-2.9,0.1L98.5,92.5z M93.7,100l2.4-0.1 l0.6-1.8l4.1-0.2l0.7,1.7l2.4-0.1L99.8,90L97,90.2L93.7,100z"></path>
                	<path fill="#102860" d="M170,44.6c0,22.7-35.6,41.1-79.5,41.1S11.1,67.3,11.1,44.6S46.6,3.5,90.5,3.5 S170,21.9,170,44.6z"></path>
                	<path fill="#0B0510" d="M151.8,42.3c-0.5-4.9-2-8.4-4.7-10.4c-0.2-1-0.8-1.8-1.5-2.5c8.8-6.7,5.7-14.2,2.2-16 c-2.8-6.9-10.7-5.3-14.7-4.7c-0.6-1.3-1.6-2.4-2.8-3.2c-0.7-2.9-4.1-5.1-8.4-5.3c-4.5-0.1-8.9,1.2-12.8,3.5 c-2.6-3.7-7.7-4.3-12.4-3.2c-5.4,1.3-10.2,5-10,9.2C74.2,9,71,16.7,72.3,20.5c-2.2,0-6.3,1-8.3,2.7c-1.1-3.6-4.8-5.7-8.4-4.9 c-2.5,0.6-6.1,1.6-10.1,2.2c-3.5,0.6-6.9,0.8-8,1c-1.2,0.2-5,0.7-7.1,2.9s-2.8,6.4-2.8,7.7c0.1,2.5-0.2,8.5-0.1,10.2 c0.1,2.5,0,5-0.1,7.4c-0.2,3.7-0.7,7.4-0.9,8.8c-0.2,1.7-0.1,3.5,0.4,5.2c0.7,1.7,1.7,3.1,3.1,4.2c0.2,1.8,3,4.7,6.6,5.7 c1.6,0.5,3.3,0.5,4.9,0.1c2.1-0.5,4.1-1.6,5.6-3.2c1.9-2.1,2.9-5.3,2.9-9.3c0-2.6,0-5.9-0.1-7.7c0.5,0,5.7-0.1,6.7-0.2 c-0.7,4.5-0.9,9-0.7,13.6c0.1,2.6,0.4,6.2,3.7,8.2c0.5,3.7,6.7,6.2,11.4,5c3.9-1,6.3-4.5,7-8.7c2.4,2.9,7.8,4.3,12.4,1.9 c6.8-3.5,6.7-9,6.6-10.8c-0.1-3.7-0.2-12.1-0.2-14c0.1-2.3,3.3-4.2,5.3-3.5c0.1,1.2,0.1,2.4,0.1,3.6c-0.1,3.1-0.5,7.5-0.7,10.1 c-0.3,3.2,1.1,6.2,3.7,8c0.8,2.8,5.2,6,9.5,6.1c4,0.1,8-2.8,8.9-3.7c0.8,1.2,1.7,2.3,2.8,3.2c1.2,4.1,6.5,6.4,11.3,6.4 c2.9,0,5.6-0.9,8-2.5c2.1-1.4,3.7-3.4,4.7-5.8c0.6-1.4,1.4-6.4,1.6-11.9C152.4,53.2,152.2,47.7,151.8,42.3z"></path>
                	<path fill="#73AA17" d="M71.1,23.4c3.4-0.4,6.7,0.6,6.6,3.7c0.1,3.8-2.8,7-6.6,7.3c-3.4,0.4-7.1-0.8-7.1-4.7 C63.9,25.8,67.5,23.9,71.1,23.4z"></path>
                	<path fill="#FFCF00" d="M82.3,12.7c3.7-0.5,7.5,0.1,7.7,3.1c0.2,2.9-1.4,6.8-6.4,8.1c-4.7,1.2-7.7-0.6-8.5-3.6 C74,16.1,78.2,13.2,82.3,12.7z"></path>
                	<path fill="#F68800" d="M96.9,3.4c4.8-1.1,9.7-0.3,10.1,2.8s-2.5,8.4-7.7,9.3c-5.2,0.9-9.1-0.7-9.7-4.1 S91.3,4.7,96.9,3.4z"></path>
                	<path fill="#DE1A35" d="M110.2,6.5c1.5-1.4,3.8-2.2,6.5-2.8c2.4-0.7,5-0.7,7.4-0.2c2,0.5,3.3,1.7,3.6,3.7 c0.1,2.1-0.6,4.1-2,5.6c-1.8,2.1-4.2,3.6-6.9,4.1c-2,0.4-4.1,0.4-6,0c-2.3-0.4-4-2.3-4.4-4.5C107.7,10.2,108.5,8,110.2,6.5z"></path>
                	<path fill="#FFFFFF" d="M129.6,25.8c2.1,0.2,4.3,0.1,6.3-0.4c2.9-0.6,5.4-2.2,7.2-4.5c1.5-1.9,2.5-4.1,2.1-6.1 c-0.4-1.8-1.8-3.2-3.6-3.6c-2.6-0.6-5.4-0.5-8,0.2c-2.5,0.6-6.1,1.5-8.1,3.5c-1.4,1.5-2.1,3.6-1.8,5.7 C124.1,23,126.5,25.2,129.6,25.8z"></path>
                	<path fill="#FFFFFF" d="M59.3,40.8c-0.5-4.2-3.4-5-5.1-4.7c-1.7,0.3-5.2,1.2-7,1.4c-0.2,0.1-0.4,0.1-0.7,0.1c-1.4,0-2.5-1.2-2.5-2.6 c0-0.1,0-0.3,0-0.4c0.1-1.5,1.4-2.7,2.9-2.6c3.7-0.1,7.4-0.5,11.1-1.1c1.5-0.4,4-1.6,3.7-5.5c-0.4-4.1-3.9-4.8-6-4.2 c-1.2,0.3-6,1.4-10.1,2.3c-3.1,0.6-6.2,1-9.3,1.2c-3,0.3-5.1,2.6-5.7,6.1c-0.3,2.8-0.4,5.5-0.4,8.3c0.1,1.7,0.2,7.6,0.2,9.5 c0,2-0.9,9.9-1.1,11.4c-0.4,2.1,0.4,4.2,2,5.5c1.5,1.1,3.3,1.8,5.2,1.8c7.1,0.1,7.9-7.9,7.8-9.9c-0.1-2.7-0.1-5.3,0-8 c0.1 2.2,2-2.3,3.4-2.5c1.4-0.2,4-0.1,6-0.4C55.6,46.2,59.8,45,59.3,40.8z"></path>
                	<path fill="#FFFFFF" d="M66.4,35.3c-2.8,0.6-6,1.6-5.9,5.8c0.1,4.1,3.2,5,6.3,5c3.1,0,6.1-1.8,6.7-6.2C74,35.9,70.4,34.5,66.4,35.3z"></path>
                	<path fill="#FFFFFF" d="M66.5,47c-2.9,0.3-5.3,2.1-6.4,4.7c-0.7,2.7-1.1,5.4-1.2,8.2c-0.1,3,0,6,0.3,9c0.4,3.2,2.6,4.9,6.1,4.8 c3.5-0.1,5.8-2,6.8-5.5c1-3.5,0.6-12.9,0.2-16.2C71.8,48.7,69.3,46.9,66.5,47z"></path>
                	<path fill="#FFFFFF" d="M113.5,24.7c-3.7-0.8-7.5-0.6-11,0.7c-3.6,1.3-7.1,3-10.3,5c-1.5,0.8-2.2,0.3-3-1.5c-0.6-1.2-1.9-1.8-3.2-1.4 c-2,0.7-3.9,1.5-5.9,2.4c-3.1,1.4-3.5,5.2-3.4,6.3c0.1,1.1,0.3,7.5,0.3,8.9s-0.5,14.5-0.4,17.7c0.1,3.2,2.5,6,7.5,4.8 c5.1-1.2,7.7-5.7,7.4-8.9c-0.3-4.8-0.4-9.6-0.2-14.3c0.2-3.4,3.7-6.2,7.2-6.2c4.2,0,7,4.2,6.9,6.4c0,1.2,0,4.3-0.2,7.4 c-0.1,2.5-0.4,5.6-0.5,6.9c-0.2,2.8,1.3,6.9,6.9,7.1c5.6,0.3,9.4-4.3,10.3-7.6c0.7-3.7,1.2-7.4,1.2-11.1c0-4.3-0.2-8.7-0.7-13 C121.9,28.9,117.8,25.9,113.5,24.7z"></path>
                	<path fill="#FFFFFF" d="M146.3,49.9c-0.1-3-0.1-6-0.3-8.4c-0.2-2-0.4-4-0.8-6c-0.3-1.8-1.1-3.5-2.4-4.8c-1.6-1.4-3.6-1.9-6.5-1.7 c-1.9,0.2-3.7,0.9-5.2,1.9c-1.6,1.1-2.8,2.6-3.7,4.3c-0.6,1.8-1.1,3.7-1.4,5.6c-0.5,3.2-0.7,7.2-0.8,8.7c-0.2,3.4-0.3,6.7-0.2,9.6 c0.1,2.7,0.5,5.2,0.6,6.1c0.1,2,1.1,3.8,2.7,4.9c0.7,0.5,1.4,0.9,2.2,1.2c5.8,2.2,12.3-0.7,14.5-6.5 C146.1,62.2,146.4,55.8,146.3,49.9z"></path>
                </svg>